#define kd_console1_width 128
#define kd_console1_height 32
static unsigned char kd_console1_bits[] = {
   0x00, 0x00, 0x00, 0x00, 0x00, 0x00, 0x00, 0x00, 0x00, 0x00, 0x00, 0x00,
   0x00, 0x00, 0x00, 0x00, 0x00, 0x00, 0x00, 0x00, 0x00, 0x00, 0x00, 0x00,
   0x00, 0x00, 0x00, 0x00, 0x00, 0x00, 0x00, 0x00, 0x00, 0x00, 0x00, 0x3c,
   0x00, 0x00, 0x00, 0x00, 0x00, 0x00, 0x00, 0x00, 0x00, 0x00, 0x00, 0x00,
   0x00, 0x00, 0x00, 0x38, 0x00, 0x00, 0x00, 0x00, 0x00, 0x00, 0x00, 0x00,
   0x00, 0x00, 0x20, 0x08, 0xf0, 0x80, 0x1f, 0x3c, 0x00, 0x00, 0x00, 0x00,
   0x00, 0x00, 0x00, 0x00, 0x00, 0x00, 0x48, 0x24, 0xf0, 0x81, 0x3f, 0x2e,
   0x00, 0x00, 0x00, 0x00, 0x00, 0x00, 0x00, 0x00, 0x00, 0x00, 0xe8, 0x2f,
   0xe0, 0x83, 0x7f, 0x04, 0x00, 0x00, 0x00, 0x00, 0x00, 0x00, 0x00, 0x00,
   0x00, 0x00, 0xb8, 0x3b, 0xc0, 0x87, 0xff, 0x80, 0x07, 0x00, 0x00, 0x00,
   0x00, 0x00, 0x00, 0x00, 0x00, 0x00, 0xf8, 0x3f, 0x80, 0x8f, 0xf7, 0x01,
   0x07, 0x00, 0x00, 0x00, 0x00, 0x00, 0x00, 0x00, 0x00, 0x00, 0xf0, 0x1f,
   0x00, 0x9f, 0xe7, 0x83, 0x07, 0x00, 0x00, 0x00, 0x00, 0x00, 0x00, 0x00,
   0x00, 0x00, 0x20, 0x08, 0x00, 0xbe, 0xc7, 0xc7, 0x05, 0x00, 0x00, 0x00,
   0x00, 0x00, 0x00, 0x00, 0x00, 0x00, 0x10, 0x10, 0x00, 0xfc, 0x87, 0x8f,
   0x00, 0x00, 0x00, 0x00, 0x00, 0x00, 0x00, 0x00, 0x00, 0x00, 0x00, 0x00,
   0x00, 0xf8, 0x07, 0x1f, 0x00, 0x00, 0x00, 0x00, 0x00, 0x00, 0x00, 0x00,
   0x0c, 0x00, 0x00, 0x00, 0x00, 0xf0, 0x07, 0x3e, 0x00, 0x00, 0x00, 0x00,
   0x00, 0x00, 0x00, 0x00, 0x0c, 0x00, 0x00, 0x00, 0x00, 0xe0, 0x07, 0x7c,
   0x00, 0x00, 0x00, 0x00, 0x00, 0x00, 0x00, 0x00, 0x0c, 0x00, 0x00, 0x00,
   0x00, 0xc0, 0x07, 0x78, 0x00, 0xe0, 0x07, 0x1f, 0x0e, 0xc3, 0x0f, 0x3e,
   0x0c, 0x3f, 0x00, 0x00, 0x00, 0xc0, 0x07, 0x78, 0x00, 0xf0, 0x8f, 0x3f,
   0x1e, 0xe3, 0x1f, 0x7f, 0x8c, 0x7f, 0x00, 0x00, 0x00, 0xe0, 0x07, 0x7c,
   0x00, 0x18, 0xcc, 0x60, 0x1e, 0x33, 0x98, 0xc1, 0xcc, 0x60, 0x00, 0x00,
   0x00, 0xf0, 0x07, 0x3e, 0x00, 0x18, 0xcc, 0x60, 0x36, 0x33, 0x80, 0xc1,
   0xcc, 0x60, 0x00, 0x00, 0x00, 0xf8, 0x07, 0x1f, 0x00, 0x18, 0xc0, 0x60,
   0x36, 0x33, 0x80, 0xc1, 0xcc, 0x60, 0x00, 0x00, 0x00, 0xfc, 0x87, 0x0f,
   0x00, 0x18, 0xc0, 0x60, 0x36, 0x33, 0x80, 0xc1, 0xcc, 0x7f, 0x00, 0x00,
   0x00, 0xbe, 0xc7, 0x07, 0x00, 0x18, 0xc0, 0x60, 0x66, 0xe3, 0x87, 0xc1,
   0xcc, 0x3f, 0x00, 0x00, 0x00, 0x9f, 0xe7, 0x03, 0x00, 0x18, 0xc0, 0x60,
   0x66, 0xc3, 0x9f, 0xc1, 0xcc, 0x00, 0x00, 0x00, 0x80, 0x8f, 0xf7, 0x01,
   0x00, 0x18, 0xc0, 0x60, 0x66, 0x03, 0x98, 0xc1, 0xcc, 0x00, 0x00, 0x00,
   0xc0, 0x87, 0xff, 0x00, 0x00, 0x18, 0xcc, 0x60, 0x66, 0x03, 0x98, 0xc1,
   0xcc, 0x00, 0x00, 0x00, 0xe0, 0x83, 0x7f, 0x00, 0x00, 0x18, 0xcc, 0x60,
   0xc6, 0x33, 0x98, 0xc1, 0xcc, 0x60, 0x00, 0x00, 0xf0, 0x81, 0x3f, 0x00,
   0x00, 0xf0, 0x8f, 0x3f, 0xc6, 0xf3, 0x0f, 0x7f, 0x8c, 0x7f, 0x00, 0x00,
   0xf8, 0x80, 0x1f, 0x00, 0x00, 0xe0, 0x07, 0x1f, 0x86, 0xe3, 0x07, 0x3e,
   0x0c, 0x3f, 0x00, 0x00, 0x78, 0x80, 0x0f, 0x00, 0x00, 0x00, 0x00, 0x00,
   0x00, 0x00, 0x00, 0x00, 0x00, 0x00, 0x00, 0x00, 0x00, 0x00, 0x00, 0x00,
   0x00, 0x00, 0x00, 0x00, 0x00, 0x00, 0x00, 0x00, 0x00, 0x00, 0x00, 0x00,
   0x00, 0x00, 0x00, 0x00, 0x00, 0x00, 0x00, 0x00, 0x00, 0x00, 0x00, 0x00,
   0x00, 0x00, 0x00, 0x00, 0x00, 0x00, 0x00, 0x00, 0x00, 0x00, 0x00, 0x00,
   0x00, 0x00, 0x00, 0x00, 0x00, 0x00, 0x00, 0x00 };
